<?xml version="1.0" encoding="UTF-8"?>
<svg id="Camada_2" data-name="Camada 2" xmlns="http://www.w3.org/2000/svg" viewBox="0 0 557.41 69.8">
  <defs>
    <style>
      .cls-1, .cls-2 {
        fill: #fff;
      }

      .cls-2, .cls-3, .cls-4 {
        fill-rule: evenodd;
      }

      .cls-3 {
        fill: #95c13d;
      }

      .cls-4, .cls-5 {
        fill: #8cc541;
      }

      .cls-6 {
        fill: #8dc642;
      }
    </style>
  </defs>
  <g id="Camada_3" data-name="Camada 3">
    <g>
      <g>
        <g>
          <path class="cls-3" d="M88.36.09h2.13l-2.13,2.27h-1.29l1.29-2.27h0ZM88.21,10.02c1.6,0,2.02-1.43,2.02-2.77,0-1.23-.65-2.38-2.02-2.38s-2,1.18-2,2.38c0,1.32.42,2.77,2,2.77h0ZM88.21,3.26c2.38,0,4.19,1.6,4.19,4.24,0,2.3-1.54,4.13-4.19,4.13s-4.18-1.83-4.18-4.13c0-2.64,1.82-4.24,4.18-4.24h0Z"/>
          <path class="cls-3" d="M110.25,4.97h-1.54v-1.52h1.54v-1.6l2.08-.67v2.27h1.85v1.52h-1.85v3.73c0,.68.19,1.32.98,1.32.37,0,.73-.08.95-.22l.06,1.65c-.44.12-.92.19-1.54.19-1.63,0-2.53-1.01-2.53-2.59v-4.07h0Z"/>
          <path class="cls-3" d="M131.18,3.45h2.08v8h-2.08V3.45h0ZM131.18,0h2.08v1.99h-2.08V0h0Z"/>
          <path class="cls-3" d="M156.17,5.17c-.37-.17-.78-.3-1.41-.3-1.29,0-2.11,1.03-2.11,2.53s.7,2.61,2.16,2.61c.59,0,1.25-.22,1.6-.37l.09,1.72c-.61.19-1.23.26-2.08.26-2.62,0-3.94-1.79-3.94-4.23,0-2.31,1.36-4.14,3.87-4.14.84,0,1.44.09,2.02.26l-.19,1.65h0Z"/>
          <path class="cls-3" d="M176.21,10.11c.64,0,1.13-.28,1.46-.71.34-.45.44-1.02.44-1.65h-.9c-.93,0-2.31.16-2.31,1.38,0,.68.57.98,1.32.98h0ZM173.77,3.87c.81-.37,1.89-.61,2.78-.61,2.44,0,3.45,1.01,3.45,3.37v1.03c0,.81.02,1.41.03,2,.02.6.05,1.16.1,1.79h-1.83c-.08-.42-.08-.95-.09-1.2h-.03c-.48.89-1.52,1.38-2.47,1.38-1.41,0-2.8-.85-2.8-2.38,0-1.2.58-1.89,1.37-2.28.79-.39,1.82-.47,2.69-.47h1.15c0-1.29-.58-1.72-1.8-1.72-.89,0-1.77.34-2.47.87l-.06-1.79h0Z"/>
          <path class="cls-3" d="M202.33,5.12c-.64-.22-1.1-.34-1.86-.34-.56,0-1.23.2-1.23.89,0,1.27,3.62.47,3.62,3.35,0,1.86-1.66,2.61-3.35,2.61-.79,0-1.6-.14-2.36-.34l.13-1.71c.65.33,1.33.53,2.05.53.53,0,1.37-.2,1.37-.98,0-1.57-3.62-.5-3.62-3.39,0-1.73,1.51-2.49,3.14-2.49.98,0,1.61.15,2.27.3l-.14,1.57h0Z"/>
          <path class="cls-3" d="M117.02,30.68c-1.46,0-2.64-1.18-2.64-2.64s1.18-2.64,2.64-2.64,2.64,1.18,2.64,2.64c0,1.46-1.18,2.64-2.64,2.64h0Z"/>
        </g>
        <g>
          <polygon class="cls-2" points="146.58 54.54 146.46 54.54 138.75 31.95 130.07 31.95 141.58 62.98 150.68 62.98 162.13 31.95 154.05 31.95 146.58 54.54 146.58 54.54"/>
          <path class="cls-2" d="M236.16,57.44c-5.3,0-6.81-5.79-6.81-10.06,0-4.16,1.45-9.88,6.69-9.88s7.23,5.54,7.23,9.88-1.74,10.06-7.11,10.06h0ZM243.33,35.56h-.12c-2.41-2.95-5.24-4.34-9.28-4.34-9.52,0-13.02,7.59-13.02,16.15s3.5,16.33,13.02,16.33c3.8,0,7.11-1.2,9.52-4.22h.12v3.5h7.84V17.79h-8.07v17.78h0Z"/>
          <path class="cls-2" d="M51.47,31.22c-1.89,0-3.55.76-4.89,1.85v-.02c-1.14,1.02-2.91,1.73-4.95,1.91h0c-.3.04-.61.05-.92.06-.03,0-.06,0-.09,0h0c-.49,0-.96-.03-1.42-.09-.26-.03-.51-.1-.76-.15-.18-.04-.37-.06-.54-.11-.34-.09-.67-.2-.98-.32-.06-.02-.13-.04-.19-.07-.32-.13-.61-.28-.9-.44-.04-.02-.09-.04-.13-.06v29.19h8.07v-11.39c0-4.46,0-12.65,6.57-12.65,1.45,0,2.9.24,3.62.66v-8.13c-.84-.24-1.69-.24-2.47-.24h0Z"/>
          <path class="cls-2" d="M216.51,31.22c-1.89,0-3.55.76-4.89,1.85v-.02c-1.14,1.02-2.91,1.73-4.95,1.91h0c-.3.04-.61.05-.92.06-.03,0-.06,0-.09,0h0c-.49,0-.96-.03-1.42-.09-.27-.03-.51-.1-.76-.15-.18-.04-.37-.06-.54-.11-.35-.09-.67-.2-.98-.32-.06-.02-.13-.04-.2-.07-.32-.13-.61-.28-.9-.44-.04-.02-.09-.04-.13-.06v29.19h8.07v-11.39c0-4.46,0-12.65,6.57-12.65,1.45,0,2.9.24,3.62.66v-8.13c-.84-.24-1.69-.24-2.47-.24h0Z"/>
          <path class="cls-2" d="M18.5,55.03c-1.27,1.69-3.19,2.77-5.67,2.77-2.89,0-5.12-1.14-5.12-3.8,0-4.76,5.36-5.36,8.98-5.36h3.5c0,2.41-.36,4.64-1.69,6.39h0ZM27.65,56.05c-.06-2.29-.12-4.64-.12-7.77v-3.98c0-9.16-3.92-13.08-13.38-13.08-1.32,0-2.75.17-4.2.42v5.88c1.06-.24,2.15-.39,3.23-.39,4.76,0,6.99,1.69,6.99,6.69h-4.46c-3.37,0-7.35.3-10.42,1.81-3.07,1.51-5.3,4.22-5.3,8.86,0,5.91,5.36,9.22,10.84,9.22,1.84,0,3.77-.48,5.47-1.39h0c1.57-.82,3.89-1.37,6.54-1.43h0c.19,0,.37-.02.57-.02.78,0,1.53.05,2.26.13.09.01.18.02.26.03.69.09,1.35.2,1.97.35-.12-1.79-.21-3.51-.26-5.32h0Z"/>
          <path class="cls-2" d="M105.61,62.76c-8.44,0-15.29-6.85-15.29-15.29s6.85-15.3,15.29-15.3,15.29,6.85,15.29,15.3-6.85,15.29-15.29,15.29h0ZM120.61,30.91c-.84,1.05-2.14,1.73-3.59,1.73-2.54,0-4.6-2.06-4.6-4.6,0-.61.12-1.2.34-1.74-2.25-.76-4.65-1.18-7.15-1.18-12.33,0-22.34,10-22.34,22.34s10,22.33,22.34,22.33,22.34-10,22.34-22.33c0-6.56-2.83-12.47-7.34-16.55h0Z"/>
          <path class="cls-2" d="M179.9,37.15c4.51,0,6.32,3.37,6.56,7.28h-13.72c.36-4.15,2.65-7.28,7.16-7.28h0ZM183.17,58.99l-1.6.04c-5,0-8.47-4.08-8.83-9.07h21.42c0-10.83-3.25-18.71-14.74-18.71-9.63,0-14.38,7.4-14.38,16.36,0,10.17,5.84,16.06,16.07,16.06.88,0,1.62-.05,2.65-.2,1.39-.12,3.32-.65,3.32-.65l-.72-4.07s-1.54.12-2,.16c-.46.03-1.19.07-1.19.07h0Z"/>
          <path class="cls-2" d="M272.63,37.15c4.51,0,6.31,3.37,6.56,7.28h-13.72c.36-4.15,2.65-7.28,7.16-7.28h0ZM275.91,58.99l-1.6.04c-4.99,0-8.47-4.08-8.83-9.07h21.42c0-10.83-3.25-18.71-14.74-18.71-9.63,0-14.38,7.4-14.38,16.36,0,10.17,5.84,16.06,16.07,16.06.88,0,1.62-.05,2.65-.2,1.39-.12,3.32-.65,3.32-.65l-.72-4.07s-1.54.12-2,.16c-.46.03-1.19.07-1.19.07h0Z"/>
          <path class="cls-2" d="M73,57.43c-.1,0-.21,0-.31,0-5.66,0-8.38-4.4-8.38-10.12s3.19-9.82,8.2-9.82c.39,0,.76.01,1.11.04h0s4.5,0,4.5,0l.6-5.28c-2.24-.66-4.58-1.03-7.84-1.03-9.7,0-15.01,7.11-15.01,16.09,0,9.46,5.12,16.39,15.31,16.39,3.31,0,5.73-.3,8.07-1.02l-.28-5.25h-5.97Z"/>
        </g>
      </g>
      <g>
        <g>
          <g>
            <path class="cls-1" d="M375.98,31.96c-.99,1.81-2.91,3.04-5.12,3.04-3.22,0-5.82-2.61-5.82-5.82,0-.78.15-1.52.43-2.2-2.16-.44-4.49-.66-6.98-.66-4.57,0-8.7.77-12.4,2.32-3.7,1.55-6.93,3.62-9.68,6.22-.6.56-1.17,1.14-1.72,1.73-.03-.66-.05-1.32-.05-2.01,0-4.51.7-8.38,2.09-11.61,1.39-3.23,3.58-5.72,6.57-7.48,2.99-1.76,6.85-2.64,11.57-2.64s8.16.75,10.47,2.24c2.31,1.5,3.88,3.32,4.72,5.47h10.23c-.58-3.15-2.02-5.94-4.33-8.38-2.31-2.44-5.27-4.37-8.9-5.79-3.62-1.42-7.77-2.13-12.44-2.13-6.51,0-12.01,1.3-16.49,3.9-4.49,2.6-7.89,6.21-10.2,10.83-2.31,4.62-3.46,9.92-3.46,15.9s1.17,11.28,3.5,15.9c2.33,4.62,5.81,8.23,10.43,10.83,4.62,2.6,10.31,3.9,17.08,3.9,5.35,0,9.98-.85,13.9-2.56,3.91-1.71,6.94-4.08,9.09-7.13,2.15-3.04,3.23-6.56,3.23-10.55s-.96-7.24-2.87-10.08c-.81-1.2-1.76-2.28-2.85-3.25ZM369.46,51.43c-1.18,1.73-2.94,3.08-5.27,4.05-2.34.97-5.24,1.46-8.7,1.46-4.57,0-8.4-.88-11.49-2.64-3.1-1.76-5.43-4.32-7.01-7.68-.34-.73-.65-1.5-.92-2.29,2.19-2.42,4.75-4.46,7.69-6.13,3.88-2.2,8.11-3.31,12.68-3.31,3.41,0,6.21.47,8.38,1.42,2.18.94,3.79,2.22,4.84,3.82,1.05,1.6,1.58,3.42,1.58,5.47,0,2.15-.59,4.09-1.77,5.82Z"/>
            <path class="cls-1" d="M432.88,43.64V5.38h-13.23l-35.19,39.13v7.48h38.03v12.44h10.39v-12.44h10.79v-8.35h-10.79ZM422.48,43.64h-26.27l26.27-29.21v29.21Z"/>
          </g>
          <path class="cls-4" d="M370.86,32.56c-1.87,0-3.38-1.51-3.38-3.38s1.51-3.38,3.38-3.38,3.38,1.51,3.38,3.38c0,1.87-1.51,3.38-3.38,3.38h0Z"/>
          <g>
            <path class="cls-5" d="M391.82,56.64l-.19,2c-.07-.12-.14-.23-.22-.34-.4-.57-.88-1.02-1.44-1.34-.56-.32-1.18-.48-1.86-.48-.72,0-1.36.16-1.91.48-.56.32-.99.77-1.31,1.34-.32.57-.48,1.24-.48,2.01s.16,1.42.48,2c.32.58.75,1.03,1.31,1.35.56.33,1.19.49,1.91.49.68,0,1.3-.16,1.86-.48.56-.32,1.04-.77,1.43-1.35.08-.11.15-.23.22-.35l.19,2.01h1.22l-.34-3.67.34-3.66h-1.22ZM390.93,61.78c-.34.43-.73.76-1.17,1-.44.24-.92.36-1.44.36s-.97-.12-1.37-.36c-.4-.24-.72-.57-.95-1-.23-.43-.35-.92-.35-1.47s.11-1.05.35-1.47c.23-.43.55-.76.95-1,.4-.24.86-.36,1.37-.36s1,.12,1.44.36c.44.24.83.57,1.17,1,.34.43.62.92.84,1.47-.22.56-.5,1.05-.84,1.47Z"/>
            <path class="cls-5" d="M400.44,56.89c-.48-.27-1.06-.41-1.75-.41-.64,0-1.22.15-1.73.44-.51.29-.92.7-1.23,1.23-.07.11-.13.23-.18.36l-.31-1.86h-1.2l.42,2.32v5.01h1.2v-3.61c0-.57.11-1.07.33-1.5.22-.43.53-.77.94-1.01.4-.24.87-.36,1.41-.36.77,0,1.36.22,1.76.67.4.45.61,1.11.61,1.99v3.83h1.2v-4.04c0-.73-.13-1.35-.38-1.87-.25-.52-.62-.91-1.09-1.19Z"/>
            <path class="cls-5" d="M409.48,56.96c-.65-.32-1.41-.48-2.28-.48s-1.62.16-2.27.48c-.66.32-1.17.77-1.53,1.34-.36.57-.55,1.24-.55,2.01s.18,1.42.55,2.01c.36.58.87,1.03,1.53,1.35.66.32,1.41.48,2.27.48s1.63-.16,2.28-.48c.65-.32,1.16-.77,1.53-1.35.37-.58.55-1.25.55-2.01s-.18-1.43-.55-2.01c-.37-.57-.88-1.02-1.53-1.34ZM409.96,61.81c-.26.43-.62.75-1.09.98-.47.23-1.02.35-1.67.35s-1.19-.12-1.66-.35c-.47-.23-.84-.56-1.09-.98-.25-.43-.38-.93-.38-1.51s.13-1.07.38-1.5c.25-.43.61-.76,1.09-.99.47-.23,1.03-.35,1.66-.35s1.2.12,1.67.35c.47.23.83.56,1.09.99.26.43.38.92.38,1.5s-.13,1.09-.38,1.51Z"/>
            <path class="cls-5" d="M419.49,60.82c-.18-.28-.48-.5-.91-.68-.43-.17-1.01-.3-1.75-.36l-1.62-.17c-.64-.07-1.09-.19-1.34-.35-.25-.16-.38-.39-.38-.66,0-.38.19-.67.58-.87.39-.2.93-.3,1.62-.3.56,0,1.04.07,1.43.21.39.14.69.32.91.55.22.23.35.48.39.76h1.21c-.03-.49-.22-.92-.56-1.29-.34-.37-.79-.66-1.36-.87-.57-.21-1.22-.31-1.95-.31-.69,0-1.29.08-1.81.25s-.93.42-1.22.74c-.29.33-.44.73-.44,1.2,0,.35.09.66.27.94.18.28.48.52.91.7.42.19.98.31,1.69.38l1.42.14c.76.08,1.27.19,1.55.35.28.15.42.38.42.7,0,.4-.21.71-.64.94-.43.23-1.02.35-1.78.35-.52,0-.99-.07-1.39-.21-.41-.14-.74-.34-.99-.59-.25-.26-.4-.55-.46-.89h-1.22c.03.53.21.99.55,1.39.34.4.81.71,1.41.93.6.22,1.3.33,2.09.33s1.43-.1,1.97-.29c.54-.19.96-.46,1.24-.81.28-.35.42-.76.42-1.22,0-.39-.09-.72-.27-1Z"/>
          </g>
        </g>
        <g>
          <g>
            <polygon class="cls-6" points="470.57 12.76 465.15 24.7 459.69 12.76 456.02 12.76 463.17 27.86 467.02 27.86 474.19 12.76 470.57 12.76"/>
            <path class="cls-6" d="M479.53,28.17c1.42,0,2.67-.25,3.75-.76,1.08-.5,1.91-1.21,2.51-2.12.6-.91.9-1.96.9-3.15s-.3-2.27-.9-3.17c-.6-.91-1.43-1.61-2.51-2.12-1.07-.5-2.32-.76-3.75-.76s-2.67.25-3.75.76c-1.08.5-1.91,1.21-2.52,2.12-.6.91-.91,1.96-.91,3.17s.3,2.25.91,3.15c.6.91,1.44,1.61,2.52,2.12,1.07.5,2.32.76,3.75.76ZM476.23,20.28c.3-.52.74-.92,1.3-1.2s1.23-.42,1.99-.42,1.45.14,2,.42c.56.28.99.68,1.29,1.2.3.52.45,1.14.45,1.86s-.15,1.33-.45,1.84-.73.92-1.29,1.2c-.56.28-1.23.42-2,.42s-1.43-.14-1.99-.42-1-.68-1.3-1.2-.45-1.13-.45-1.84.15-1.35.45-1.86Z"/>
            <path class="cls-6" d="M494.56,28.17c1.21,0,2.3-.21,3.28-.63.98-.42,1.78-1,2.41-1.75.62-.75,1-1.62,1.14-2.6h-3.36c-.16.73-.55,1.31-1.18,1.75-.62.44-1.39.66-2.29.66-.71,0-1.33-.14-1.86-.41s-.94-.67-1.22-1.19c-.28-.52-.42-1.14-.42-1.86s.14-1.37.42-1.88.69-.91,1.22-1.19,1.15-.41,1.86-.41c.89,0,1.64.21,2.27.63.63.42,1.02,1.02,1.2,1.8h3.36c-.13-.99-.51-1.86-1.14-2.61-.63-.75-1.43-1.33-2.41-1.75-.98-.42-2.08-.63-3.28-.63-1.37,0-2.57.26-3.62.77s-1.85,1.22-2.44,2.12-.88,1.96-.88,3.15.29,2.23.88,3.14c.58.91,1.4,1.62,2.44,2.13s2.25.76,3.62.76Z"/>
            <path class="cls-6" d="M505.63,27.41c1.07.5,2.28.76,3.64.76,1.11,0,2.17-.15,3.17-.45,1-.3,1.88-.72,2.63-1.26v-2.26c-.7.46-1.48.81-2.36,1.06-.87.25-1.74.37-2.6.37-.95,0-1.77-.15-2.44-.44s-1.18-.73-1.53-1.29c-.13-.22-.23-.45-.32-.7h9.54c0-1.44-.26-2.69-.77-3.75-.52-1.06-1.25-1.88-2.21-2.47s-2.09-.88-3.42-.88-2.46.25-3.48.76-1.82,1.21-2.41,2.11-.88,1.95-.88,3.14.31,2.27.92,3.18c.61.91,1.45,1.62,2.52,2.13ZM507.2,18.99c.5-.28,1.1-.41,1.78-.41.63,0,1.18.13,1.65.38.47.26.84.62,1.12,1.09.16.27.27.58.35.91h-6.38c.07-.29.17-.57.31-.82.28-.49.66-.87,1.17-1.15Z"/>
            <polygon class="cls-6" points="508.91 13.29 510.81 15.23 513.55 15.23 510.67 11.61 507.15 11.61 504.27 15.23 507.03 15.23 508.91 13.29"/>
            <path class="cls-6" d="M480.57,44.67c.53-.28,1.15-.41,1.86-.41.89,0,1.64.21,2.27.63.63.42,1.02,1.02,1.2,1.8h3.36c-.13-.99-.51-1.86-1.14-2.61-.63-.75-1.43-1.33-2.41-1.75-.98-.42-2.08-.63-3.28-.63-1.37,0-2.57.26-3.62.77s-1.85,1.22-2.44,2.12-.88,1.96-.88,3.15.29,2.23.88,3.14c.58.91,1.4,1.62,2.44,2.13s2.25.76,3.62.76c1.21,0,2.3-.21,3.28-.63.98-.42,1.78-1,2.41-1.75.62-.75,1-1.62,1.14-2.6h-3.36c-.16.73-.55,1.31-1.18,1.75-.62.44-1.39.66-2.29.66-.71,0-1.33-.14-1.86-.41s-.94-.67-1.22-1.19c-.28-.52-.42-1.14-.42-1.86s.14-1.37.42-1.88.69-.91,1.22-1.19Z"/>
            <path class="cls-6" d="M500.98,42.45c-1.07-.5-2.32-.76-3.75-.76s-2.67.25-3.75.76c-1.08.5-1.91,1.21-2.52,2.12-.6.91-.91,1.96-.91,3.17s.3,2.25.91,3.15c.6.91,1.44,1.61,2.52,2.12,1.07.5,2.32.76,3.75.76s2.67-.25,3.75-.76c1.08-.5,1.91-1.21,2.51-2.12.6-.91.9-1.96.9-3.15s-.3-2.27-.9-3.17c-.6-.91-1.43-1.61-2.51-2.12ZM500.53,49.58c-.3.52-.73.92-1.29,1.2-.56.28-1.23.42-2,.42s-1.43-.14-1.99-.42-1-.68-1.3-1.2-.45-1.13-.45-1.84.15-1.35.45-1.86c.3-.52.74-.92,1.3-1.2s1.23-.42,1.99-.42,1.45.14,2,.42c.56.28.99.68,1.29,1.2.3.52.45,1.14.45,1.86s-.15,1.33-.45,1.84Z"/>
            <path class="cls-6" d="M516.59,42.35c-.76-.44-1.69-.66-2.78-.66-.94,0-1.8.22-2.58.66-.78.44-1.42,1.08-1.93,1.91-.06.09-.1.2-.16.3l-.43-2.57h-3.36l.73,3.87v7.59h3.36v-5.54c0-.71.13-1.32.39-1.83.26-.51.64-.91,1.13-1.2.49-.29,1.06-.43,1.7-.43.95,0,1.68.27,2.18.8s.75,1.31.75,2.35v5.86h3.36v-6.37c0-1.11-.2-2.07-.6-2.88-.4-.81-.99-1.43-1.75-1.86Z"/>
            <path class="cls-6" d="M534.22,37.2c-.6,0-1.1.16-1.48.47-.38.31-.57.74-.57,1.28s.19.94.57,1.26.88.47,1.48.47,1.14-.16,1.51-.47c.38-.32.56-.74.56-1.26s-.19-.96-.56-1.28c-.38-.32-.88-.47-1.51-.47Z"/>
            <polygon class="cls-6" points="532.55 41.88 532.55 53.46 535.91 53.46 535.91 41.88 534.22 42.2 532.55 41.88"/>
            <path class="cls-6" d="M528.02,37.65c-1.24,0-2.26.2-3.06.6-.81.4-1.41.98-1.81,1.73-.4.75-.6,1.65-.6,2.7v.18h-2.38v2.54h2.38v8.06h3.38v-8.06h4.61v-2.54h-4.61v-.54c0-.77.2-1.31.59-1.64.4-.33,1.02-.49,1.88-.49.42,0,.81.04,1.18.12s.72.2,1.06.36v-2.54c-.39-.15-.8-.27-1.22-.35-.42-.09-.89-.13-1.4-.13Z"/>
            <path class="cls-6" d="M552.03,42h-3.48l-.29,2.54c-.58-.9-1.3-1.6-2.16-2.09-.87-.5-1.84-.75-2.91-.75s-2.1.25-2.96.76c-.86.5-1.53,1.21-2,2.12-.48.91-.72,1.96-.72,3.17s.24,2.25.72,3.15c.48.91,1.14,1.61,2,2.12.86.5,1.85.76,2.96.76s2.05-.25,2.91-.75c.87-.5,1.58-1.2,2.15-2.1l.29,2.55h3.48l-.66-5.72.66-5.74ZM545.91,50.71c-.56.29-1.15.43-1.78.43s-1.19-.14-1.67-.43c-.48-.29-.86-.69-1.14-1.2s-.41-1.1-.41-1.77.14-1.27.41-1.78c.28-.52.66-.92,1.14-1.21.48-.29,1.04-.43,1.67-.43s1.23.14,1.78.43c.56.29,1.05.69,1.48,1.21.43.52.76,1.11,1.01,1.78-.24.67-.58,1.26-1.01,1.77-.43.51-.92.91-1.48,1.2Z"/>
          </g>
          <g>
            <polygon class="cls-1" points="531.08 16.4 527.35 24.92 523.62 16.4 519.92 16.4 525.38 27.86 529.18 27.86 534.66 16.4 531.08 16.4"/>
            <polygon class="cls-1" points="541.1 13.29 543 15.23 545.74 15.23 542.86 11.61 539.34 11.61 536.46 15.23 539.22 15.23 541.1 13.29"/>
            <path class="cls-1" d="M546.78,19.44c-.52-1.06-1.25-1.88-2.21-2.47s-2.09-.88-3.42-.88-2.46.25-3.48.76-1.82,1.21-2.41,2.11-.88,1.95-.88,3.14.31,2.27.92,3.18c.61.91,1.45,1.62,2.52,2.13,1.07.5,2.28.76,3.64.76,1.11,0,2.17-.15,3.17-.45,1-.3,1.88-.72,2.63-1.26v-2.26c-.7.46-1.48.81-2.36,1.06-.87.25-1.74.37-2.6.37-.95,0-1.77-.15-2.44-.44s-1.18-.73-1.53-1.29c-.13-.22-.23-.45-.32-.7h9.54c0-1.44-.26-2.69-.77-3.75ZM537.91,20.96c.07-.29.17-.57.31-.82.28-.49.66-.87,1.17-1.15s1.1-.41,1.78-.41c.63,0,1.18.13,1.65.38.47.26.84.62,1.12,1.09.16.27.27.58.35.91h-6.38Z"/>
            <path class="cls-1" d="M469,45.04c-.52-1.06-1.25-1.88-2.21-2.47s-2.09-.88-3.42-.88-2.46.25-3.48.76-1.82,1.21-2.41,2.11-.88,1.95-.88,3.14.31,2.27.92,3.18c.61.91,1.45,1.62,2.52,2.13,1.07.5,2.28.76,3.64.76,1.11,0,2.17-.15,3.17-.45,1-.3,1.88-.72,2.63-1.26v-2.26c-.7.46-1.48.81-2.36,1.06-.87.25-1.74.37-2.6.37-.95,0-1.77-.15-2.44-.44s-1.18-.73-1.53-1.29c-.13-.22-.23-.45-.32-.7h9.54c0-1.44-.26-2.69-.77-3.75ZM461.61,44.59c.5-.28,1.1-.41,1.78-.41.63,0,1.18.13,1.65.38.47.26.84.62,1.12,1.09.16.27.27.58.35.91h-6.38c.07-.29.17-.57.31-.82.28-.49.66-.87,1.17-1.15Z"/>
            <path class="cls-1" d="M557.14,50.65c-.17-.3-.41-.54-.72-.72-.3-.17-.64-.26-1.02-.26s-.69.09-1,.26c-.3.17-.54.41-.72.72-.17.3-.26.64-.26,1.02s.09.69.26,1c.17.3.41.54.72.72s.63.26,1,.26.71-.09,1.02-.26.54-.41.72-.72c.17-.3.26-.63.26-1s-.09-.72-.26-1.02Z"/>
          </g>
        </g>
      </g>
    </g>
  </g>
</svg>