<?xml version="1.0" encoding="UTF-8"?>
<svg id="Camada_2" data-name="Camada 2" xmlns="http://www.w3.org/2000/svg" viewBox="0 0 392.75 255.52">
  <defs>
    <style>
      .cls-1 {
        fill: none;
        stroke: #41af5b;
        stroke-miterlimit: 10;
        stroke-width: 4px;
      }
    </style>
  </defs>
  <g id="Camada_1-2" data-name="Camada 1">
    <g>
      <g>
        <path class="cls-1" d="M294.09,130.09l-94.11,59.94,94.11,63.09,94.98-63.09-94.98-59.94ZM294.53,231.35c-22.4,0-40.55-18.15-40.55-40.55s18.15-40.55,40.55-40.55,40.54,18.16,40.54,40.55-18.15,40.55-40.54,40.55Z"/>
        <path class="cls-1" d="M97.77,130.09L3.66,190.03l94.11,63.09,94.98-63.09-94.98-59.94ZM98.21,231.35c-22.4,0-40.55-18.15-40.55-40.55s18.15-40.55,40.55-40.55,40.54,18.16,40.54,40.55-18.15,40.55-40.54,40.55Z"/>
      </g>
      <g>
        <path class="cls-1" d="M294.09,2.37l-94.11,59.94,94.11,63.09,94.98-63.09L294.09,2.37ZM294.53,103.63c-22.4,0-40.55-18.15-40.55-40.55s18.15-40.55,40.55-40.55,40.54,18.16,40.54,40.55-18.15,40.55-40.54,40.55Z"/>
        <path class="cls-1" d="M97.77,2.37L3.66,62.31l94.11,63.09,94.98-63.09L97.77,2.37ZM98.21,103.63c-22.4,0-40.55-18.15-40.55-40.55s18.15-40.55,40.55-40.55,40.54,18.16,40.54,40.55-18.15,40.55-40.54,40.55Z"/>
      </g>
    </g>
  </g>
</svg>